<svg width="26" height="26" viewBox="0 0 26 26" fill="none" xmlns="http://www.w3.org/2000/svg">
<path d="M19.25 5.25V6.5C19.25 6.83152 19.1182 7.14946 18.8839 7.38389C18.6495 7.6183 18.3315 7.75 18 7.75C17.6685 7.75 17.3505 7.6183 17.1161 7.38389C16.8818 7.14946 16.75 6.83152 16.75 6.5V5.25H9.25V6.5C9.25 6.83152 9.1183 7.14946 8.88389 7.38389C8.64946 7.6183 8.33152 7.75 8 7.75C7.66848 7.75 7.35054 7.6183 7.11611 7.38389C6.8817 7.14946 6.75 6.83152 6.75 6.5V5.25H3V10.25H23V5.25H19.25ZM19.25 2.75H23C23.663 2.75 24.2989 3.01339 24.7677 3.48224C25.2366 3.95107 25.5 4.58696 25.5 5.25V22.75C25.5 23.413 25.2366 24.0489 24.7677 24.5177C24.2989 24.9866 23.663 25.25 23 25.25H3C2.33696 25.25 1.70107 24.9866 1.23224 24.5177C0.763387 24.0489 0.5 23.413 0.5 22.75V5.25C0.5 4.58696 0.763387 3.95107 1.23224 3.48224C1.70107 3.01339 2.33696 2.75 3 2.75H6.75V1.5C6.75 1.16848 6.8817 0.850537 7.11611 0.616112C7.35054 0.3817 7.66848 0.25 8 0.25C8.33152 0.25 8.64946 0.3817 8.88389 0.616112C9.1183 0.850537 9.25 1.16848 9.25 1.5V2.75H16.75V1.5C16.75 1.16848 16.8818 0.850537 17.1161 0.616112C17.3505 0.3817 17.6685 0.25 18 0.25C18.3315 0.25 18.6495 0.3817 18.8839 0.616112C19.1182 0.850537 19.25 1.16848 19.25 1.5V2.75ZM3 12.75V22.75H23V12.75H3Z" fill="#2E079E"/>
</svg>
