<svg width="30" height="30" viewBox="0 0 30 30" fill="none" xmlns="http://www.w3.org/2000/svg">
<path d="M22.261 17.7927C21.6441 18.4096 20.6438 18.4096 20.0269 17.7927C19.4098 17.1756 19.4098 16.1755 20.0269 15.5584L26.1708 9.41458C27.4046 8.18069 26.846 5.62164 25.6122 4.38775C24.3784 3.15386 21.8193 2.59532 20.5853 3.8292L14.4414 9.97311C13.8245 10.5901 12.8242 10.59 12.2073 9.97311C11.5904 9.35617 11.5904 8.3559 12.2073 7.73897L18.3512 1.59506C20.819 -0.87271 25.3786 -0.314163 27.8463 2.15359C30.3141 4.62137 30.8727 9.18094 28.4049 11.6487L22.261 17.7927Z" fill="#2E079E"/>
<path d="M19.4683 8.2976C20.0852 7.68067 21.0856 7.68067 21.7025 8.2976C22.3194 8.91454 22.3194 9.91481 21.7025 10.5317L10.5318 21.7024C9.91481 22.3195 8.91455 22.3195 8.2976 21.7024C7.68067 21.0855 7.68067 20.0852 8.2976 19.4683L19.4683 8.2976Z" fill="#2E079E"/>
<path d="M9.41459 12.766C8.79764 12.1491 7.79738 12.1491 7.18043 12.766L1.59507 18.3513C-0.872711 20.819 -0.314164 25.3786 2.1536 27.8464C4.62137 30.3141 9.18095 30.8728 11.6487 28.405L17.2341 22.8195C17.851 22.2026 17.851 21.2023 17.2341 20.5854C16.6172 19.9685 15.6169 19.9685 15 20.5854L9.41459 26.1709C8.1807 27.4047 5.62164 26.8462 4.38776 25.6123C3.15387 24.3784 2.59532 21.8194 3.82921 20.5854L9.41459 15.0001C10.0315 14.3832 10.0315 13.3829 9.41459 12.766Z" fill="#2E079E"/>
</svg>
