<svg width="25" height="25" viewBox="0 0 25 25" fill="none" xmlns="http://www.w3.org/2000/svg">
<g opacity="0.7">
<path d="M11.25 13.2322L8.38389 10.3661C7.89573 9.87795 7.10427 9.87795 6.61611 10.3661C6.12796 10.8542 6.12796 11.6457 6.61611 12.1339L12.5 18.0177L18.3839 12.1339C18.872 11.6457 18.872 10.8542 18.3839 10.3661C17.8958 9.87795 17.1042 9.87795 16.6161 10.3661L13.75 13.2322V1.25C13.75 0.559637 13.1904 0 12.5 0C11.8096 0 11.25 0.559637 11.25 1.25V13.2322Z" fill="#2E079E"/>
<path d="M1.25 21.7677C0.55965 21.7677 0 22.3273 0 23.0177C0 23.7081 0.55965 24.2677 1.25 24.2677H23.75C24.4404 24.2677 25 23.7081 25 23.0177C25 22.3273 24.4404 21.7677 23.75 21.7677H1.25Z" fill="#2E079E"/>
</g>
</svg>
